<svg width="213" height="71" viewBox="0 0 213 71" fill="none" xmlns="http://www.w3.org/2000/svg">
<path fill-rule="evenodd" clip-rule="evenodd" d="M27.1146 26.6478H23.6746L17.8225 30.2824L18.3431 33.3157C21.1242 32.3773 21.5262 32.2848 21.5262 32.8201V45.6009C21.5262 46.156 21.4537 46.3014 20.9331 46.341L17.75 46.5987V49.5197H30.7392V46.5987L27.7078 46.341C27.1542 46.3014 27.1146 46.1956 27.1146 45.6009V26.6478ZM39.379 26.7601H41.5603C44.1832 26.7601 46.3712 27.3879 46.3712 30.9433C46.3712 35.1264 43.6692 35.6816 41.2308 35.6816H39.379V26.7601ZM42.081 39.64C48.335 39.64 52.2167 37.0495 52.2167 30.6129C52.2167 26.357 50.1473 22.729 43.3001 22.729H30.759V25.6896L33.0919 25.9473C33.6126 25.9869 33.6851 26.1323 33.6851 26.6874V45.5943C33.6851 46.1494 33.6126 46.2617 33.0919 46.3344L30.759 46.5921V49.5131H45.264V46.5921L39.9721 46.2947C39.4185 46.2221 39.379 46.1494 39.379 45.5546V39.64H42.081ZM62.8071 44.636C61.9569 45.2638 60.6982 45.9709 59.4395 45.9709C58.2203 45.9709 57.3306 45.4158 57.3306 43.9355C57.3306 42.4552 58.1083 41.9001 60.2896 41.7547L62.8071 41.5697V44.636ZM79.8097 37.565C77.5559 37.0495 75.5195 36.7125 75.5195 35.1991C75.5195 34.0162 76.5542 33.3091 78.406 33.3091C79.4077 33.3091 80.2908 33.4545 80.7719 33.6065C81.0289 33.6792 81.108 33.8312 81.141 34.122L81.51 36.045L85.4707 36.3028V30.9367C84.4361 30.527 81.5825 29.8661 78.6631 29.8661C74.4058 29.8661 70.4846 31.7561 70.4846 36.3424C70.4846 41.193 74.5574 41.8539 77.6614 42.409C79.5461 42.7394 81.0289 43.1888 81.0289 44.6691C81.0289 46.037 79.9218 46.5921 77.9579 46.5921C76.5542 46.5921 75.5525 46.3674 75.1109 46.2221C74.7748 46.1494 74.7024 45.9974 74.6694 45.6669L74.3004 43.5588L70.3397 43.2615V46.5459L68.8371 46.2947C68.2835 46.2221 68.244 46.1494 68.244 45.5546V36.5671C68.244 31.3861 65.9835 29.8661 60.3621 29.8661C56.955 29.8661 52.4078 30.5666 52.4078 35.5626L57.6272 36.0054C57.6272 33.7849 58.5498 33.5272 60.3292 33.5272C62.6226 33.5272 62.8071 34.7101 62.8071 36.4481V38.4835L58.5498 38.7809C53.9235 39.0783 51.6301 40.7767 51.6301 44.4774C51.6301 46.7706 52.3682 49.9558 57.0341 49.9558C59.9931 49.9558 61.8449 48.8456 63.2486 47.4777L63.4331 47.5173L63.8022 49.5131H70.6099V48.7663C71.6445 49.2355 74.6233 49.9558 77.6679 49.9558C82.3667 49.9558 86.0309 48.1055 86.0309 43.5919C86.0309 39.27 82.7358 38.2324 79.8097 37.565ZM187.342 44.0082C186.34 44.8607 184.976 45.6009 183.717 45.6009C181.384 45.6009 180.35 43.6051 180.35 40.0101C180.35 36.7191 181.424 34.1616 184.159 34.1616C185.233 34.1616 186.413 34.644 187.342 35.2718V44.0082ZM193.484 46.3344C192.93 46.2617 192.891 46.189 192.891 45.6339V21.5791H185.45L185.042 24.5793L187.078 25.2798C187.414 25.3922 187.559 25.6499 187.559 26.02V31.6438C186.156 30.6063 184.488 29.8661 182.34 29.8661C178.234 29.8661 174.497 32.6813 174.497 40.1158C174.497 47.1803 177.312 49.9558 181.674 49.9558C184.376 49.9558 186.188 48.9183 187.744 47.405L188.001 47.4446L188.37 49.5197H195.25V46.5987L193.484 46.3344ZM131.174 33.4942L131.292 33.4743C131.642 32.7276 132.044 32.0073 132.505 31.3332V30.2428H124.735L124.254 33.3157L126.363 33.5404L123.588 43.9355H123.364L120.188 30.7186H114.599L111.304 43.9289H111.047L108.088 33.5338L110.158 33.3091V30.2362H100.799L100.707 30.712C99.376 30.3221 97.0101 29.8661 94.5915 29.8661C90.3343 29.8661 86.4131 31.7561 86.4131 36.3424C86.4131 41.193 90.4858 41.8539 93.5898 42.409C95.4746 42.7394 96.9574 43.1888 96.9574 44.6691C96.9574 46.037 95.8502 46.5921 93.8864 46.5921C92.4827 46.5921 91.481 46.3674 91.0394 46.2221C90.7033 46.1494 90.6308 45.9974 90.5979 45.6669L90.2288 43.5588L86.2681 43.2615V48.6275C86.9337 49.0703 90.2288 49.9624 93.5964 49.9624C98.2952 49.9624 101.959 48.1121 101.959 43.5985C101.959 39.27 98.6643 38.2324 95.7448 37.565C93.491 37.0495 91.4546 36.7125 91.4546 35.1991C91.4546 34.0162 92.4893 33.3091 94.3411 33.3091C95.3428 33.3091 96.2259 33.4545 96.707 33.6065C96.964 33.6792 97.0431 33.8312 97.076 34.122L97.4451 36.045L101.406 36.3028V33.4942L101.768 33.5735C102.21 33.6858 102.401 33.7585 102.546 34.2013L107.205 49.5197H113.868L116.794 37.1222H117.018L119.904 49.5197H125.75L130.297 34.2343C130.436 33.7585 130.66 33.5735 131.174 33.4942ZM169.436 34.4193C169.733 34.4193 169.845 34.492 169.917 34.8291L170.286 36.7918L174.728 36.9372V30.2031C174.063 30.0181 172.362 29.8727 171.512 29.8727C169.146 29.8727 167.518 31.3134 166.293 33.2034H166.069L165.627 30.2428H159.116L158.747 32.9589C158.806 33.0778 158.872 33.1968 158.925 33.3157L160.704 33.9435C161.073 34.0559 161.185 34.3136 161.185 34.7233V45.5678C161.185 46.1229 161.113 46.2353 160.592 46.308L158.925 46.5327V49.5329H171.024V46.5723L167.36 46.2749C166.807 46.2353 166.767 46.1295 166.767 45.5348V35.7146C167.327 35.2388 168.474 34.4193 169.436 34.4193Z" fill="#010202"/>
<path fill-rule="evenodd" clip-rule="evenodd" d="M145.052 27.4473C151.774 27.4473 157.224 32.9125 157.224 39.6531C157.224 46.3937 151.774 51.8589 145.052 51.8589C138.33 51.8589 132.88 46.3937 132.88 39.6531C132.88 32.9125 138.33 27.4473 145.052 27.4473Z" fill="#198CFF"/>
<path fill-rule="evenodd" clip-rule="evenodd" d="M129.836 39.6532C129.836 48.079 136.65 54.9056 145.053 54.9056C153.455 54.9056 160.269 48.0724 160.269 39.6466C160.269 31.2208 153.455 24.3877 145.053 24.3877C136.65 24.3877 129.836 31.2275 129.836 39.6532ZM132.881 39.6532C132.881 46.3939 138.331 51.8591 145.053 51.8591C151.775 51.8591 157.225 46.3939 157.225 39.6532C157.225 32.9126 151.775 27.4474 145.053 27.4474C138.331 27.4474 132.881 32.9126 132.881 39.6532Z" fill="white"/>
<path opacity="0.5" fill-rule="evenodd" clip-rule="evenodd" d="M129.328 39.653C129.328 48.363 136.366 55.4208 145.052 55.4208C153.738 55.4208 160.776 48.363 160.776 39.653C160.776 30.9431 153.738 23.8853 145.052 23.8853C136.366 23.8853 129.328 30.9431 129.328 39.653ZM129.836 39.653C129.836 31.2273 136.643 24.3941 145.052 24.3941C153.461 24.3941 160.269 31.2273 160.269 39.653C160.269 48.0788 153.461 54.912 145.052 54.912C136.643 54.912 129.836 48.0788 129.836 39.653ZM133.388 39.653C133.388 46.1095 138.607 51.35 145.052 51.35C151.497 51.35 156.717 46.1161 156.717 39.653C156.717 33.1966 151.497 27.9561 145.052 27.9561C138.607 27.9561 133.388 33.19 133.388 39.653ZM132.88 39.653C132.88 32.9124 138.33 27.4472 145.052 27.4472C151.774 27.4472 157.224 32.9124 157.224 39.653C157.224 46.3937 151.774 51.8589 145.052 51.8589C138.33 51.8589 132.88 46.3937 132.88 39.653Z" fill="black"/>
<path fill-rule="evenodd" clip-rule="evenodd" d="M150.285 52.4073C154.918 50.4314 158.16 45.8319 158.16 40.4791C158.16 33.3155 152.354 27.5133 145.197 27.5133C138.034 27.5133 132.234 33.3221 132.234 40.4791C132.234 47.6162 138.007 53.4118 145.138 53.4449H145.072C137.559 53.4449 131.463 47.3519 131.463 39.838C131.463 32.3242 137.553 26.2246 145.065 26.2246C152.578 26.2246 158.674 32.3176 158.674 39.8314C158.674 45.5015 155.208 50.3587 150.285 52.4073ZM144.802 53.5969C153.198 53.5969 159.999 46.7901 159.999 38.3974C159.999 37.6176 159.939 36.8444 159.827 36.0977C160.111 37.2541 160.262 38.4635 160.262 39.7125C160.262 48.1052 153.455 54.9119 145.065 54.9119C137.454 54.9119 131.147 49.3146 130.04 42.0122C131.661 48.6603 137.651 53.5969 144.802 53.5969Z" fill="black" fill-opacity="0.1"/>
<path fill-rule="evenodd" clip-rule="evenodd" d="M145.052 30.5C150.094 30.5 154.18 34.5972 154.18 39.6527C154.18 44.7082 150.094 48.8054 145.052 48.8054C140.011 48.8054 135.925 44.7082 135.925 39.6527C135.918 34.5972 140.011 30.5 145.052 30.5Z" fill="#F3F3F3"/>
<path fill-rule="evenodd" clip-rule="evenodd" d="M145.052 30.501C140.01 30.501 135.924 34.5983 135.924 39.6538C135.924 44.7092 140.01 48.8065 145.052 48.8065C150.093 48.8065 154.179 44.7092 154.179 39.6538C154.179 34.5983 150.093 30.501 145.052 30.501ZM145.052 29.9922C150.377 29.9922 154.687 34.3207 154.687 39.6538C154.687 44.9934 150.37 49.3153 145.052 49.3153C139.734 49.3153 135.417 44.9868 135.417 39.6538C135.41 34.3141 139.727 29.9922 145.052 29.9922Z" fill="black" fill-opacity="0.25"/>
<path fill-rule="evenodd" clip-rule="evenodd" d="M149.105 39.6528C149.105 41.8997 147.286 43.7237 145.046 43.7237C142.805 43.7237 140.986 41.8997 140.986 39.6528C140.986 37.406 142.805 35.582 145.046 35.582C147.286 35.582 149.105 37.406 149.105 39.6528Z" fill="black" fill-opacity="0.05"/>
<path fill-rule="evenodd" clip-rule="evenodd" d="M148.598 39.6528C148.598 37.6835 147.01 36.0909 145.046 36.0909C143.082 36.0909 141.494 37.6835 141.494 39.6528C141.494 41.6222 143.082 43.2148 145.046 43.2148C147.01 43.2082 148.598 41.6156 148.598 39.6528ZM149.105 39.6528C149.105 41.8997 147.286 43.7237 145.046 43.7237C142.805 43.7237 140.986 41.8997 140.986 39.6528C140.986 37.406 142.805 35.582 145.046 35.582C147.286 35.582 149.105 37.406 149.105 39.6528Z" fill="black" fill-opacity="0.15"/>
<path fill-rule="evenodd" clip-rule="evenodd" d="M149.105 39.6529C149.105 37.406 147.286 35.5821 145.046 35.5821C142.805 35.5821 140.986 37.406 140.986 39.6529C140.986 41.8998 142.805 43.7237 145.046 43.7237C147.286 43.7237 149.105 41.8998 149.105 39.6529ZM149.613 39.6529C149.613 42.1839 147.57 44.2326 145.046 44.2326C142.522 44.2326 140.479 42.1839 140.479 39.6529C140.479 37.1219 142.522 35.0732 145.046 35.0732C147.57 35.0732 149.613 37.1219 149.613 39.6529Z" fill="white"/>
<path fill-rule="evenodd" clip-rule="evenodd" d="M147.075 40.6311V33.5469H143.016V46.7704H147.075V42.5212L146.06 41.5762L147.075 40.6311ZM143.022 37.7961V39.6861L144.037 38.7411L143.022 37.7961Z" fill="white"/>
<path fill-rule="evenodd" clip-rule="evenodd" d="M147.075 40.1224V33.0381H143.016V46.2616H147.075V42.0124L146.06 41.0674L147.075 40.1224ZM143.022 37.2873V39.1773L144.037 38.2323L143.022 37.2873Z" fill="#4C4C4C"/>
<path fill-rule="evenodd" clip-rule="evenodd" d="M146.568 40.3403V34.0557H143.523V46.2615H146.568V42.6929L145.81 41.7215V41.206L146.568 40.3403ZM143.53 39.9636L144.288 39.1111V38.5957L143.53 37.7234V39.9636Z" fill="#7F7F7F"/>
</svg>
