<svg width="301" height="76" viewBox="0 0 301 76" fill="none" xmlns="http://www.w3.org/2000/svg">
<path fill-rule="evenodd" clip-rule="evenodd" d="M37.0594 43.6995C35.6114 42.4074 34.1541 41.1072 32.668 39.7921C27.4551 49.9837 22.2421 60.103 17.029 70.2222C17.2376 70.2222 17.3763 70.1505 17.4458 70.0782C25.9257 63.2838 34.4059 56.4891 43.0248 49.6947C43.5113 49.2609 44.0675 48.8995 44.6235 48.6104C47.6471 46.9841 50.6533 45.3758 53.6595 43.7675C56.6657 42.1592 59.6719 40.551 62.6955 38.9247C62.8303 38.8781 62.9649 38.8012 63.1182 38.7138C63.2023 38.6656 63.2922 38.6145 63.3907 38.5633C63.1821 38.4187 63.0432 38.2742 62.904 38.1296C58.908 34.5161 54.9292 30.9206 50.9506 27.3252C46.9706 23.7285 42.9906 20.132 38.9933 16.5173C38.7153 16.2282 38.2983 15.9391 37.9506 15.8668C35.6686 15.3549 33.4153 14.903 31.1723 14.4531C29.9311 14.2041 28.6931 13.9558 27.4549 13.6983C24.4313 13.0839 21.3904 12.4695 18.3495 11.8551C15.3085 11.2408 12.2675 10.6263 9.24384 10.0119C8.40974 9.83124 7.59302 9.66861 6.77631 9.50597C5.95957 9.34334 5.14286 9.1807 4.30876 9C4.30876 9 4.23926 9.07228 4.23926 9.14456C11.2313 14.3818 18.189 19.6548 25.1607 24.9384C28.0997 27.1656 27 26.7088 33.9886 31.6242C34.57 29.5086 35.1391 27.4058 35.7061 25.3101C36.4954 22.3938 37.2808 19.4917 38.0897 16.5896C38.2287 16.6619 38.2287 16.7342 38.2287 16.8064C36.769 23.8901 35.2398 30.9737 33.7107 38.0573C33.5717 38.491 33.6411 38.8524 33.9886 39.2138C35.3094 40.6234 36.63 42.0509 37.9508 43.4786C39.2714 44.9061 40.592 46.3336 41.9126 47.7431C41.9821 47.8154 42.0517 47.9057 42.1211 47.996C42.1907 48.0865 42.2602 48.1768 42.3296 48.249L42.2602 48.3213C40.5172 46.7846 38.7949 45.2479 37.0594 43.6995ZM72.4001 28.5469C74.4134 28.1085 76.4098 27.6736 78.4294 27.2148C78.3206 27.1304 78.233 27.0463 78.1541 26.9706C78.03 26.8512 77.9279 26.7531 77.7995 26.7088C75.4197 24.6126 73.0401 22.5887 70.6605 20.5648C70.2406 20.2034 69.8906 20.1311 69.4006 20.348C67.1609 21.1792 64.9386 22.0285 62.7165 22.8778C60.4944 23.7271 58.2721 24.5765 56.0324 25.4077C54.9826 25.8414 53.9328 26.275 52.743 26.7088C56.5224 30.612 60.2318 34.443 64.0112 38.4184C65.9711 32.5636 67.8608 26.7811 69.7506 20.9985C69.7908 21.0402 69.808 21.0578 69.8287 21.0653C69.8438 21.0708 69.8609 21.0708 69.8905 21.0708C69.2606 23.8175 68.6307 26.5643 67.9308 29.5278C69.4403 29.1916 70.9247 28.8681 72.4001 28.5469Z" fill="#007672"/>
<g clip-path="url(#clip0_732_5)">
<path fill-rule="evenodd" clip-rule="evenodd" d="M100.415 28.8008V54.3514H95.2637V28.8008H86.8262V23.7998H108.941V28.8008H100.415Z" fill="#101820"/>
<path fill-rule="evenodd" clip-rule="evenodd" d="M112.47 40.7621H122.062C121.973 39.1256 121.44 37.9436 120.641 37.1251C119.842 36.3068 118.776 35.8521 117.532 35.8521C116.111 35.8521 114.957 36.2158 113.98 37.0341C113.092 37.8526 112.559 39.0346 112.47 40.7621ZM117.532 54.6765C114.424 54.6765 112.026 53.6762 110.161 51.5839C108.384 49.4935 107.496 46.6747 107.496 43.0377C107.496 39.4007 108.384 36.5819 110.249 34.4906C112.026 32.3992 114.513 31.3989 117.621 31.3989C120.374 31.3989 122.684 32.3084 124.46 34.0359C126.236 35.8544 127.124 38.4004 127.124 41.8557C127.124 43.0377 127.035 44.1289 126.947 45.0382H112.47C112.559 46.5829 113.092 47.8569 114.068 48.8561C115.045 49.8572 116.2 50.3119 117.621 50.3119C119.575 50.3119 121.085 49.5845 122.24 48.0387L125.437 51.312C123.394 53.4942 120.819 54.6765 117.532 54.6765Z" fill="#101820"/>
<path fill-rule="evenodd" clip-rule="evenodd" d="M139.813 54.6765C136.793 54.6765 134.484 53.6762 132.707 51.5849C130.931 49.4935 130.043 46.6747 130.043 43.0377C130.043 39.4007 130.931 36.5819 132.707 34.4906C134.484 32.3992 136.793 31.3989 139.813 31.3989C144.342 31.3989 147.185 33.4904 148.428 37.5822L143.72 39.2187C143.01 37.3092 141.767 36.3092 139.99 36.3092C138.481 36.3092 137.326 36.9457 136.438 38.1277C135.55 39.3097 135.194 41.0374 135.194 43.1287C135.194 45.2199 135.638 46.8567 136.438 48.0387C137.237 49.2207 138.391 49.8572 139.813 49.8572C141.856 49.8572 143.188 48.7662 143.809 46.5839L148.605 48.0387C147.272 52.4942 144.342 54.6765 139.813 54.6765Z" fill="#101820"/>
<path fill-rule="evenodd" clip-rule="evenodd" d="M152.591 53.3608V24.264L157.565 21.8989V33.175C158.986 31.4464 160.94 30.5372 163.338 30.5372C165.647 30.5372 167.423 31.2655 168.933 32.7203C170.354 34.1742 171.065 36.4474 171.065 39.6299V53.3608H166.091V40.5392C166.091 37.1758 164.759 35.448 162.005 35.448C159.074 35.448 157.565 37.0848 157.565 40.449V53.4516L152.591 53.3608Z" fill="#101820"/>
<path fill-rule="evenodd" clip-rule="evenodd" d="M203.18 53.4265H198.044V37.7319C198.044 36.4093 198.133 35.2623 198.22 34.205C197.868 35.2623 197.425 36.4093 196.893 37.8201L189.632 53.9555L182.373 37.7319C181.841 36.5849 181.398 35.4394 180.955 34.205C181.045 35.2623 181.133 36.4975 181.133 37.7319V53.5147H175.998V23.7998H181.133L188.747 41.1707C189.102 41.9642 189.367 42.6695 189.545 43.3749C189.809 42.6695 190.075 41.9642 190.342 41.1707L198.044 23.7998H203.002V53.4265H203.18Z" fill="#007672"/>
<path fill-rule="evenodd" clip-rule="evenodd" d="M216.706 49.8253C218.565 49.8253 220.246 49.1198 221.575 47.71V44.8877C220.338 44.2704 218.919 44.0058 217.238 44.0058C215.909 44.0058 214.845 44.2704 214.048 44.7114C213.253 45.1522 212.81 45.9466 212.81 46.9156C212.81 47.7972 213.164 48.5027 213.872 49.0326C214.491 49.5608 215.466 49.8253 216.706 49.8253ZM221.575 53.6184V51.855C220.159 53.353 218.211 54.0592 215.82 54.0592C213.518 54.0592 211.57 53.4421 210.154 52.2067C208.736 50.9731 207.941 49.2097 207.941 46.9164C207.941 44.5357 208.736 42.7723 210.419 41.626C212.102 40.4799 214.048 39.7754 216.439 39.7754C218.476 39.7754 220.246 40.1271 221.575 40.9207V39.7754C221.575 38.3637 221.221 37.3938 220.513 36.7766C219.803 36.1595 218.743 35.8076 217.325 35.8076C214.934 35.8076 212.81 36.512 210.862 37.8346L209.357 33.7788C211.746 32.1916 214.58 31.3989 217.857 31.3989C219.008 31.3989 219.981 31.4863 220.867 31.6626C221.751 31.8399 222.637 32.1916 223.523 32.7215C224.407 33.2497 225.117 34.1315 225.65 35.2777C226.179 36.424 226.444 37.8346 226.444 39.5981V53.5293L221.575 53.6184Z" fill="#007672"/>
<path fill-rule="evenodd" clip-rule="evenodd" d="M240.315 49.2971C242.085 49.2971 243.503 48.5918 244.389 47.1818V38.2757C243.414 36.8648 241.998 36.1603 240.315 36.1603C238.721 36.1603 237.57 36.6885 236.684 37.8346C235.889 38.9818 235.446 40.569 235.446 42.7732C235.446 44.8003 235.889 46.3874 236.684 47.6226C237.57 48.7681 238.81 49.2971 240.315 49.2971ZM239.164 61.9946L236.508 58.027C239.52 57.8505 241.555 57.4097 242.706 56.617C243.857 55.9108 244.389 54.7645 244.389 53.2656V52.0321C243.238 53.3547 241.555 53.972 239.429 53.972C236.773 53.972 234.649 53.0011 232.966 51.0614C231.285 49.1225 230.488 46.301 230.488 42.6849C230.488 39.1581 231.285 36.4248 232.966 34.3978C234.649 32.369 236.773 31.3989 239.52 31.3989C241.555 31.3989 243.149 32.0162 244.389 33.2506V31.928H249.347V51.4139C249.347 55.029 248.55 57.586 247.045 59.1731C245.54 60.7603 242.882 61.7309 239.164 61.9946Z" fill="#007672"/>
<path fill-rule="evenodd" clip-rule="evenodd" d="M253.568 52.4076H258.528V30.8055H253.568V52.4076ZM258.17 27.0131C257.64 27.6302 256.932 27.8947 256.046 27.8947C255.249 27.8947 254.541 27.6302 253.92 27.0131C253.301 26.3958 253.036 25.7785 253.036 24.8969C253.036 24.1033 253.301 23.398 253.92 22.7807C254.541 22.2517 255.16 21.8989 256.046 21.8989C256.843 21.8989 257.551 22.1634 258.17 22.7807C258.702 23.3098 259.056 24.0151 259.056 24.8969C258.967 25.6905 258.702 26.3958 258.17 27.0131Z" fill="#007672"/>
<path fill-rule="evenodd" clip-rule="evenodd" d="M272.171 53.9709C269.159 53.9709 266.857 53.0011 265.087 50.9731C263.317 48.9452 262.431 46.212 262.431 42.6849C262.431 39.1581 263.317 36.4248 265.087 34.3969C266.857 32.369 269.159 31.3989 272.171 31.3989C276.686 31.3989 279.518 33.4271 280.758 37.3947L276.065 38.9818C275.357 37.1302 274.119 36.1603 272.347 36.1603C270.842 36.1603 269.691 36.7774 268.805 37.9237C267.921 39.0701 267.567 40.7452 267.567 42.7732C267.567 44.8011 268.008 46.3882 268.805 47.5346C269.602 48.6807 270.753 49.298 272.171 49.298C274.206 49.298 275.535 48.2399 276.154 46.1237L280.936 47.5346C279.607 51.855 276.686 53.9709 272.171 53.9709Z" fill="#007672"/>
</g>
<defs>
<clipPath id="clip0_732_5">
<rect width="194.11" height="40.0957" fill="white" transform="translate(86.8262 21.8989)"/>
</clipPath>
</defs>
</svg>
